<mxfile host="app.diagrams.net" modified="2023-06-26T12:20:11.011Z" agent="Mozilla/5.0 (Linux; Android 10; K) AppleWebKit/537.36 (KHTML, like Gecko) Chrome/114.0.0.0 Safari/537.36" version="21.5.0" etag="EDjbmfpaqyqHTnSgyumW" type="github">
  <diagram name="Page-1" id="pxRonuGQYweWR6b3KX9P">
    <mxGraphModel>
      <root>
        <mxCell id="0" />
        <mxCell id="1" parent="0" />
      </root>
    </mxGraphModel>
  </diagram>
</mxfile>
